PathFileType	4	(X/Y/Z)	C:\Users\WrightLab\Desktop\Jo\P5V28.trc
DataRate	CameraRate	NumFrames	NumMarkers	Units	OrigDataRate	OrigDataStartFrame	OrigNumFrames
100.00	100.00	       15	19	mm	100.00	574	       918
Frame#	Time	Headset_Front			Headset_Back			Headset_Left			Headset_Right			Left_Shoulder			Right_Shoulder			Sternum			C7			Left Elbow			Right Elbow			Left Wrist			Right Wrist			Left ASIS			Right ASIS			S2			Left Knee			Right Knee			Left Ankle			Right Ankle			
		X1	Y1	Z1	X2	Y2	Z2	X3	Y3	Z3	X4	Y4	Z4	X5	Y5	Z5	X6	Y6	Z6	X7	Y7	Z7	X8	Y8	Z8	X9	Y9	Z9	X10	Y10	Z10	X11	Y11	Z11	X12	Y12	Z12	X13	Y13	Z13	X14	Y14	Z14	X15	Y15	Z15	X16	Y16	Z16	X17	Y17	Z17	X18	Y18	Z18	X19	Y19	Z19	

574	5.730	-95.39698	1423.08911	-23.94629				35.65676	1560.14270	-117.36178	-189.78076	1535.38879	-64.42566	93.37608	1486.73840	-343.54803	-271.02426	1443.56433	-168.13683	-80.17236	1291.90198	-216.02649	-155.15471	1535.89746	-360.26227	139.98233	1195.87683	-423.85687	-394.60294	1196.47400	-104.28596	125.02866	953.83704	-345.64911	-312.76941	1065.91248	85.80220	13.07487	916.30402	-263.97186	-254.17538	937.71326	-174.42950	-156.04117	993.50629	-478.62964	35.41189	496.87866	-295.08405	-339.10803	499.82904	-194.45573	-51.35573	82.95989	-382.97458	-387.43768	101.61421	-237.32991	
575	5.740	-100.88989	1423.24414	-22.66192				31.06047	1559.91602	-114.44766	-194.97636	1535.08337	-64.01040	91.83551	1488.02356	-340.16333	-276.81573	1443.53979	-169.76384	-82.99614	1292.10828	-213.68134	-157.22209	1536.06348	-360.38577	139.97713	1195.84375	-420.08145	-400.74713	1197.32288	-106.24253	124.14046	954.25110	-342.05676	-321.94199	1065.93994	85.37370	11.96977	916.41693	-262.72964	-256.11261	935.93182	-175.79875	-156.23442	993.88342	-478.47189	34.73043	496.94101	-293.23480	-340.67062	498.79846	-195.60875	-51.06180	83.13751	-383.04858	-387.54651	101.38484	-237.73944	
576	5.750	-106.25314	1423.87537	-21.60246				26.44481	1560.37939	-112.38130	-200.26770	1535.46570	-63.97891	89.42394	1488.57581	-337.59567	-280.28183	1443.56177	-170.30310	-86.90236	1292.58386	-212.12897	-159.39902	1535.84155	-359.07648	139.41870	1195.85657	-415.80649	-406.34943	1197.70361	-108.25064	122.81522	954.97028	-337.58295	-331.44012	1066.19250	84.16441	9.68538	916.06311	-260.43887	-258.35254	936.93890	-174.12503	-156.79712	993.41638	-477.34836	34.31166	497.62958	-290.12189	-341.99146	498.56403	-197.14250	-50.99322	83.20447	-382.57013	-387.72189	101.08115	-237.96297	
577	5.760	-111.75173	1423.86133	-20.28463				21.73297	1560.49121	-108.94181	-205.51054	1535.43762	-63.31119	87.98004	1488.81201	-333.18982	-282.21072	1442.78125	-169.75479	-89.96686	1292.71631	-209.87737	-160.73628	1535.97363	-358.77786	137.18626	1195.13379	-410.47244	-411.92017	1198.12854	-110.59183	121.55557	955.44446	-333.76999	-340.78705	1066.59534	84.04503	7.55222	916.40625	-257.73688	-259.43307	937.04602	-175.36276	-156.87190	993.54761	-477.06686	32.91166	497.44098	-288.87479	-343.12021	499.44788	-198.18156	-51.34426	83.16601	-382.52496	-387.86597	100.74227	-238.01649	
578	5.770	-117.37422	1423.68018	-19.00397				17.01007	1561.18323	-106.86652	-210.56078	1535.82947	-63.20183	85.24671	1488.97607	-330.15665	-287.37512	1443.64514	-170.79515	-93.01404	1293.07727	-207.47011	-163.45912	1536.29590	-357.78177	136.45895	1196.85095	-406.37161	-417.32501	1197.98364	-112.88067	120.42012	955.03149	-329.90863	-350.48712	1067.43982	83.02615	5.10204	916.89264	-255.45493	-263.62869	935.69214	-174.84773	-157.14552	993.73212	-476.49637	32.06013	498.23300	-286.97235	-344.62491	498.78638	-199.05583	-51.52551	83.37778	-382.54269	-387.89951	100.59687	-238.06853	
579	5.780	-123.35076	1424.35400	-17.42530				11.73673	1561.23816	-104.31921	-215.93971	1536.07739	-63.80536	82.81428	1489.69189	-326.41687	-291.97214	1442.72729	-171.99577	-96.48464	1292.78711	-205.50505	-165.41154	1536.54639	-356.88309	133.93103	1195.46094	-402.36176	-422.78528	1198.66211	-114.68752	118.00215	956.13324	-324.48547	-359.58203	1067.76367	81.60445	3.83303	916.92041	-252.61731	-264.59253	936.68854	-176.82515	-157.29330	993.39319	-475.56268	31.24391	498.50275	-284.42471	-345.52618	498.65558	-199.84630	-51.09811	83.82311	-382.55807	-387.84387	100.04282	-238.05698	
580	5.790	-128.92255	1424.43982	-16.20236				7.09040	1561.25159	-100.56147	-221.02298	1536.68506	-63.21032	80.60603	1489.64990	-322.63000	-295.85428	1442.96094	-172.07037	-100.45097	1293.23596	-204.91823	-167.57573	1536.39038	-355.52460	133.29945	1198.25073	-398.65054	-427.97827	1199.23560	-116.49313	116.28642	956.88800	-320.76553	-368.53632	1067.94763	81.17898	1.00664	916.80066	-251.53894	-267.81442	935.26379	-174.36617	-157.66116	993.58337	-474.57291	29.63378	498.45856	-282.39722	-346.24466	498.63583	-200.04596	-51.12348	83.98221	-382.46411	-387.87674	99.94785	-238.08875	
581	5.800	-134.68488	1424.72681	-14.65795				2.40811	1561.51758	-97.54506	-226.35727	1536.66980	-63.07397	77.73111	1490.33862	-319.70392	-299.88593	1443.01160	-172.41826	-103.06530	1293.29163	-203.11575	-169.63867	1536.26868	-354.83661	132.36775	1198.31787	-393.81464	-432.85278	1198.76160	-118.28776	114.14120	957.12817	-316.84363	-378.01483	1068.47803	80.40829	-2.02192	916.83057	-249.14116	-270.51419	935.18622	-174.29961	-158.07173	993.91138	-473.57544	28.47839	499.05661	-279.59641	-347.05936	497.92767	-201.81432	-51.13009	84.00971	-382.45065	-387.94290	99.82764	-238.13998	
582	5.810	-140.15749	1424.83118	-13.37848				-2.26378	1561.94922	-95.38940	-231.60023	1536.75562	-63.12263	75.66436	1491.23071	-317.06226	-303.33694	1443.35486	-173.08173	-106.78876	1293.88721	-201.28799	-172.02556	1536.54089	-354.56665	131.64471	1198.74133	-389.04599	-438.07272	1199.13782	-120.17564	112.50464	957.49213	-312.90311	-386.76324	1068.56287	79.34581	-4.05040	916.47937	-247.06743	-272.28360	935.55212	-176.82030	-158.63654	993.99762	-472.54453	27.21556	498.77216	-277.80930	-348.52289	497.95398	-202.53275	-51.15664	84.03632	-382.43597	-388.42215	99.90499	-238.19450	
583	5.820	-145.92189	1425.15295	-12.17733				-7.45069	1562.48669	-92.67834	-236.94174	1537.05212	-62.79097	72.92101	1491.66455	-314.01749	-308.18857	1443.98364	-173.13071	-111.06315	1293.81750	-200.56467	-173.97278	1536.54333	-353.45929	129.55283	1199.13428	-385.34265	-443.38461	1199.98645	-122.04313	109.29885	956.75500	-310.28244	-396.52042	1068.89832	78.78259	-6.92943	916.40039	-245.90585	-275.27780	934.66699	-174.98659	-159.54185	994.22357	-471.85477	25.88233	499.37372	-275.69370	-349.21909	497.85446	-202.93816	-51.36958	83.88440	-382.35110	-388.64182	99.69729	-238.03865	
584	5.830	-151.05502	1425.04724	-11.14040				-12.17556	1562.98511	-89.67900	-241.70029	1536.89307	-61.54153	70.74862	1492.05872	-310.27167	-311.54184	1443.79065	-173.39981	-114.01298	1294.45300	-198.53436	-177.08609	1537.27075	-352.27740	128.62312	1200.03015	-381.48712	-448.62360	1199.84680	-123.77219	107.34675	957.25482	-306.20718	-405.02945	1069.16907	77.76582	-9.24468	917.11652	-243.03358	-277.16110	934.38910	-176.57439	-159.99667	994.45758	-471.50882	23.42373	499.77679	-273.05701	-350.85413	497.90244	-203.14726	-51.15339	84.12879	-382.39291	-388.48831	98.67399	-237.18706	
585	5.840	-157.05960	1425.20056	-9.85567				-16.97900	1562.88867	-87.94563	-246.80296	1537.28406	-61.20953	67.70239	1492.68335	-306.77945	-314.73282	1443.68433	-173.48752	-117.04017	1294.30237	-197.41383	-179.14995	1537.43872	-351.36240	125.65134	1200.73816	-378.25635	-453.76984	1200.03088	-125.89590	104.94656	958.03546	-302.71640	-413.57968	1069.29346	76.63107	-11.38327	917.03424	-240.65041	-280.62064	934.46631	-175.06761	-161.26054	994.28894	-470.10529	21.78850	499.90927	-271.24554	-352.09164	497.48730	-203.17198	-51.35469	84.30467	-382.43967	-388.86105	98.96020	-237.55357	
586	5.850	-162.13655	1425.80737	-8.88726				-21.63513	1563.23511	-85.00976	-252.12268	1537.14124	-60.50796	64.67728	1493.17102	-304.04178	-319.98972	1443.45239	-173.77507	-120.93369	1295.13611	-194.04118	-181.62251	1536.77271	-350.02811	123.98240	1201.46167	-374.56207	-458.79419	1200.25781	-128.32477	103.65353	958.48804	-298.92993	-421.05545	1069.63623	75.49462	-12.73365	917.04620	-239.48030	-282.80899	934.65118	-173.37720	-162.00839	994.97791	-469.19510	19.99839	499.42282	-268.89215	-353.13104	497.10443	-203.20720	-51.64646	84.30252	-382.29025	-389.09393	98.78128	-237.95180	
587	5.860	-167.68225	1426.14160	-7.98713				-26.27912	1564.02283	-83.36091	-257.16937	1537.75085	-60.94613	61.75570	1493.75977	-300.58902	-323.98734	1443.75171	-173.93494	-123.53761	1295.41687	-193.02132	-183.92319	1537.14905	-349.61862	122.44955	1202.11316	-371.24808	-463.60986	1200.41858	-129.72537	100.20518	958.82648	-294.34302	-428.74918	1069.35828	75.45950	-15.34528	917.27240	-237.06082	-283.24509	935.45496	-173.37100	-162.79469	995.72229	-468.81912	17.69223	499.50134	-267.26114	-354.15994	497.26355	-203.18848	-51.30582	84.66297	-382.22495	-389.46066	98.44456	-238.35240	
588	5.870	-173.52350	1426.58240	-6.54585				-31.17421	1563.95007	-80.67316	-262.64127	1537.64819	-60.49722	58.61254	1494.13904	-297.53467	-326.93982	1442.46521	-174.26701	-127.60675	1295.40137	-190.12859	-186.68204	1537.14697	-348.24014	120.87840	1202.44458	-366.60941	-468.36740	1200.24329	-131.40681	99.95914	960.48657	-289.43042	-438.44745	1069.07690	73.64249	-17.66498	917.21332	-235.54427	-288.54404	933.73438	-173.37955	-164.65540	994.34784	-466.10022	15.78007	499.39917	-265.11475	-356.52872	497.22849	-203.09309	-51.31715	84.70107	-382.20615	-389.87381	98.42520	-238.39407	
